<svg width="76" height="76" viewBox="0 0 76 76" fill="none" xmlns="http://www.w3.org/2000/svg">
<circle cx="38" cy="38" r="38" fill="#BDDD99"/>
<path d="M53 46.75H23C21.6193 46.75 20.5 47.8693 20.5 49.25C20.5 50.6307 21.6193 51.75 23 51.75H53C54.3807 51.75 55.5 50.6307 55.5 49.25C55.5 47.8693 54.3807 46.75 53 46.75Z" stroke="#396051" stroke-width="2" stroke-linecap="round" stroke-linejoin="round"/>
<path d="M23 46.75V44.25C23 40.2718 24.5804 36.4564 27.3934 33.6434C30.2064 30.8304 34.0218 29.25 38 29.25C41.9782 29.25 45.7936 30.8304 48.6066 33.6434C51.4196 36.4564 53 40.2718 53 44.25V46.75" stroke="#396051" stroke-width="2" stroke-linecap="round" stroke-linejoin="round"/>
<path d="M34.25 29.25V28C34.25 27.0054 34.6451 26.0516 35.3483 25.3483C36.0516 24.6451 37.0054 24.25 38 24.25C38.9946 24.25 39.9484 24.6451 40.6517 25.3483C41.3549 26.0516 41.75 27.0054 41.75 28V29.25" stroke="#396051" stroke-width="2" stroke-linecap="round" stroke-linejoin="round"/>
</svg>
