<svg width="76" height="76" viewBox="0 0 76 76" fill="none" xmlns="http://www.w3.org/2000/svg">
<circle cx="38" cy="38" r="38" fill="#BDDD99"/>
<path d="M49.25 52.7625C49.25 53.5084 48.9537 54.2238 48.4262 54.7512C47.8988 55.2787 47.1834 55.575 46.4375 55.575C45.6916 55.575 44.9762 55.2787 44.4488 54.7512C43.9213 54.2238 43.625 53.5084 43.625 52.7625C43.625 53.5084 43.3287 54.2238 42.8012 54.7512C42.2738 55.2787 41.5584 55.575 40.8125 55.575C40.0666 55.575 39.3512 55.2787 38.8238 54.7512C38.2963 54.2238 38 53.5084 38 52.7625C38 53.5084 37.7037 54.2238 37.1762 54.7512C36.6488 55.2787 35.9334 55.575 35.1875 55.575C34.4416 55.575 33.7262 55.2787 33.1988 54.7512C32.6713 54.2238 32.375 53.5084 32.375 52.7625C32.375 53.5084 32.0787 54.2238 31.5512 54.7512C31.0238 55.2787 30.3084 55.575 29.5625 55.575C28.8166 55.575 28.1012 55.2787 27.5738 54.7512C27.0463 54.2238 26.75 53.5084 26.75 52.7625L29.5875 35.5L30.175 31.8875C30.8784 30.2552 32.0879 28.8924 33.625 28V28C34.4268 27.5034 35.3119 27.1562 36.2375 26.975C37.3925 26.7417 38.5825 26.7417 39.7375 26.975C40.6674 27.1547 41.5569 27.502 42.3625 28V28C43.9057 28.902 45.1159 30.2788 45.8125 31.925L46.4125 35.5L49.25 52.7625Z" stroke="#396051" stroke-width="2" stroke-linecap="round" stroke-linejoin="round"/>
<path d="M35.5 36.75C36.1904 36.75 36.75 36.1904 36.75 35.5C36.75 34.8096 36.1904 34.25 35.5 34.25C34.8096 34.25 34.25 34.8096 34.25 35.5C34.25 36.1904 34.8096 36.75 35.5 36.75Z" fill="#396051"/>
<path d="M40.5 36.75C41.1904 36.75 41.75 36.1904 41.75 35.5C41.75 34.8096 41.1904 34.25 40.5 34.25C39.8096 34.25 39.25 34.8096 39.25 35.5C39.25 36.1904 39.8096 36.75 40.5 36.75Z" fill="#396051"/>
<path d="M38 39.25L35.5 41.75L38 46.75L40.5 41.75L38 39.25Z" stroke="#396051" stroke-width="2" stroke-linecap="round" stroke-linejoin="round"/>
<path d="M44.25 25.5C44.2624 26.0831 44.0705 26.6522 43.7075 27.1087C43.3445 27.5653 42.8334 27.8806 42.2625 28V28C41.4972 27.5115 40.6505 27.1643 39.7625 26.975C38.6412 26.7418 37.4838 26.7418 36.3625 26.975C35.4746 27.1643 34.6278 27.5115 33.8625 28V28C33.1995 27.9486 32.584 27.6359 32.1515 27.1308C31.719 26.6256 31.5049 25.9693 31.5563 25.3062C31.6076 24.6432 31.9203 24.0277 32.4255 23.5952C32.9307 23.1627 33.587 22.9486 34.25 23C34.4786 23.0008 34.706 23.0345 34.925 23.1C35.0398 22.3669 35.4128 21.699 35.9766 21.2166C36.5404 20.7343 37.258 20.4692 38 20.4692C38.742 20.4692 39.4596 20.7343 40.0234 21.2166C40.5872 21.699 40.9602 22.3669 41.075 23.1C41.2941 23.0345 41.5214 23.0008 41.75 23C42.413 23 43.0489 23.2634 43.5178 23.7322C43.9866 24.2011 44.25 24.837 44.25 25.5Z" stroke="#396051" stroke-width="2" stroke-linecap="round" stroke-linejoin="round"/>
</svg>
