<svg width="76" height="76" viewBox="0 0 76 76" fill="none" xmlns="http://www.w3.org/2000/svg">
<circle cx="38" cy="38" r="38" fill="#BDDD99"/>
<path d="M31.75 33V26.75C31.75 25.0924 32.4085 23.5027 33.5806 22.3306C34.7527 21.1585 36.3424 20.5 38 20.5C39.6576 20.5 41.2473 21.1585 42.4194 22.3306C43.5915 23.5027 44.25 25.0924 44.25 26.75V33" stroke="#396051" stroke-width="2" stroke-linecap="round" stroke-linejoin="round"/>
<path d="M27.7875 28H48.2125C48.8383 27.9975 49.4424 28.2298 49.9053 28.651C50.3681 29.0722 50.6562 29.6517 50.7125 30.275L52.75 52.775C52.7813 53.1217 52.7399 53.4712 52.6284 53.8009C52.5169 54.1307 52.3377 54.4336 52.1023 54.6901C51.867 54.9466 51.5807 55.1512 51.2617 55.2906C50.9427 55.4301 50.5981 55.5014 50.25 55.5H25.7375C25.3894 55.5014 25.0448 55.4301 24.7258 55.2906C24.4068 55.1512 24.1205 54.9466 23.8852 54.6901C23.6498 54.4336 23.4707 54.1307 23.3591 53.8009C23.2476 53.4712 23.2062 53.1217 23.2375 52.775L25.275 30.275C25.3315 29.6495 25.6213 29.0682 26.0869 28.6467C26.5524 28.2252 27.1595 27.9943 27.7875 28V28Z" stroke="#396051" stroke-width="2" stroke-linecap="round" stroke-linejoin="round"/>
<path d="M31.75 40.5H44.25" stroke="#396051" stroke-width="2" stroke-linecap="round" stroke-linejoin="round"/>
<path d="M30.5 48H45.5" stroke="#396051" stroke-width="2" stroke-linecap="round" stroke-linejoin="round"/>
</svg>
