<svg width="76" height="76" viewBox="0 0 76 76" fill="none" xmlns="http://www.w3.org/2000/svg">
<circle cx="38" cy="38" r="38" fill="#BDDD99"/>
<path d="M24.55 39.3625H50.1H51.45" stroke="#396051" stroke-width="2" stroke-linecap="round" stroke-linejoin="round"/>
<path d="M48.1625 51L50.1 39.3625H25.9L27.8375 51C28.0448 52.2563 28.6913 53.3982 29.6619 54.2223C30.6325 55.0464 31.8642 55.4992 33.1375 55.5H42.8625C44.1358 55.4992 45.3674 55.0464 46.3381 54.2223C47.3087 53.3982 47.9552 52.2563 48.1625 51V51Z" stroke="#396051" stroke-width="2" stroke-linecap="round" stroke-linejoin="round"/>
<path d="M38 33.975C38 33.975 24.55 36.675 24.55 20.5C24.55 20.5 38 19.25 38 33.975Z" stroke="#396051" stroke-width="2" stroke-linecap="round" stroke-linejoin="round"/>
<path d="M38 33.975C38 33.975 51.45 36.675 51.45 20.5C51.45 20.5 38 19.25 38 33.975Z" stroke="#396051" stroke-width="2" stroke-linecap="round" stroke-linejoin="round"/>
<path d="M31.95 27.925L38 33.975" stroke="#396051" stroke-width="2" stroke-linecap="round" stroke-linejoin="round"/>
<path d="M38 33.975L44.05 27.925" stroke="#396051" stroke-width="2" stroke-linecap="round" stroke-linejoin="round"/>
<path d="M38 39.3625V33.975" stroke="#396051" stroke-width="2" stroke-linecap="round" stroke-linejoin="round"/>
</svg>
