<svg width="76" height="76" viewBox="0 0 76 76" fill="none" xmlns="http://www.w3.org/2000/svg">
<circle cx="38" cy="38" r="38" fill="#BDDD99"/>
<path d="M55.5 29.25C55.5007 30.6723 55.1546 32.0734 54.4917 33.3318C53.8288 34.5903 52.8692 35.6681 51.6959 36.4721C50.5226 37.2761 49.1709 37.7819 47.7581 37.9457C46.3452 38.1096 44.9137 37.9266 43.5875 37.4125L32.8875 48.1125C32.9627 48.487 33.0004 48.868 33 49.25C33 50.4861 32.6334 51.6945 31.9467 52.7223C31.2599 53.7501 30.2838 54.5512 29.1418 55.0242C27.9997 55.4973 26.7431 55.6211 25.5307 55.3799C24.3183 55.1387 23.2047 54.5435 22.3306 53.6694C21.4565 52.7953 20.8613 51.6817 20.6201 50.4693C20.3789 49.2569 20.5027 48.0003 20.9758 46.8582C21.4488 45.7162 22.2499 44.7401 23.2777 44.0533C24.3055 43.3666 25.5139 43 26.75 43C27.132 42.9996 27.513 43.0373 27.8875 43.1125L32.2875 38.7125L38.5375 32.4625C38.5375 32.3375 38.45 32.2125 38.4125 32.0875C38.1146 31.172 37.9751 30.2124 38 29.25C37.9994 27.8277 38.3454 26.4266 39.0083 25.1682C39.6712 23.9097 40.6308 22.8319 41.8041 22.0279C42.9775 21.2239 44.3291 20.7181 45.7419 20.5543C47.1548 20.3904 48.5863 20.5734 49.9125 21.0875L44.25 26.75L45.5 31.125H49.875L54.875 26.125C55.2729 27.1196 55.4847 28.1789 55.5 29.25V29.25Z" stroke="#396051" stroke-width="2" stroke-linecap="round" stroke-linejoin="round"/>
<path d="M26.75 50.5C27.4404 50.5 28 49.9404 28 49.25C28 48.5596 27.4404 48 26.75 48C26.0596 48 25.5 48.5596 25.5 49.25C25.5 49.9404 26.0596 50.5 26.75 50.5Z" stroke="#396051" stroke-width="2" stroke-linecap="round" stroke-linejoin="round"/>
<path d="M38.5875 32.4125L32.3375 38.6625L20.5 26.925L26.925 20.5L38.4625 32.0375C38.5 32.1625 38.5375 32.2875 38.5875 32.4125Z" stroke="#396051" stroke-width="2" stroke-linecap="round" stroke-linejoin="round"/>
<path d="M24.25 24.25L35.5 35.5" stroke="#396051" stroke-width="2" stroke-linecap="round" stroke-linejoin="round"/>
<path d="M39.25 43L44.25 48V50.5L51.75 55.5L55.5 51.75L50.5 44.25H48L43 39.25L39.25 43Z" stroke="#396051" stroke-width="2" stroke-linecap="round" stroke-linejoin="round"/>
</svg>
